<svg width="558" height="543" viewBox="0 0 558 543" fill="none" xmlns="http://www.w3.org/2000/svg">
<path fill-rule="evenodd" clip-rule="evenodd" d="M278.926 0.327515C125.048 0.327515 0.267517 124.875 0.267517 278.53C0.267517 401.444 80.1115 505.725 190.832 542.512C204.757 545.088 209.87 536.476 209.87 529.128C209.87 522.499 209.611 500.58 209.492 477.334C131.97 494.163 115.612 444.508 115.612 444.508C102.935 412.357 84.6713 403.802 84.6713 403.802C59.3883 386.536 86.5772 386.891 86.5772 386.891C114.559 388.852 129.292 415.563 129.292 415.563C154.147 458.09 194.481 445.795 210.383 438.685C212.889 420.71 220.106 408.432 228.076 401.484C166.18 394.455 101.117 370.596 101.117 263.995C101.117 233.627 112.003 208.809 129.829 189.326C126.935 182.314 117.397 154.019 132.532 115.7C132.532 115.7 155.933 108.226 209.178 144.221C231.407 138.057 255.245 134.964 278.927 134.855C302.608 134.959 326.465 138.056 348.734 144.221C401.92 108.226 425.289 115.7 425.289 115.7C440.457 154.019 430.918 182.314 428.025 189.326C445.893 208.809 456.699 233.627 456.699 263.995C456.699 370.853 391.51 394.376 329.459 401.264C339.455 409.897 348.36 426.828 348.36 452.783C348.36 490.007 348.042 519.966 348.042 529.128C348.042 536.537 353.053 545.212 367.179 542.48C477.843 505.652 557.585 401.406 557.585 278.531C557.585 124.874 432.824 0.327515 278.927 0.327515" fill="white"/>
<path d="M105.812 399.763C105.197 401.149 103.019 401.564 101.036 400.611C99.0087 399.703 97.8799 397.819 98.5339 396.432C99.1356 395.012 101.312 394.617 103.334 395.566C105.355 396.474 106.508 398.376 105.812 399.763V399.763ZM117.1 412.332C115.771 413.563 113.168 412.991 111.41 411.047C109.583 409.108 109.245 406.509 110.594 405.266C111.965 404.036 114.484 404.612 116.306 406.551C118.134 408.514 118.489 411.089 117.1 412.332ZM128.086 428.353C126.379 429.542 123.583 428.432 121.856 425.958C120.149 423.48 120.149 420.513 121.896 419.324C123.622 418.136 126.377 419.207 128.126 421.659C129.829 424.174 129.829 427.141 128.086 428.353ZM143.137 443.835C141.61 445.515 138.357 445.065 135.975 442.77C133.54 440.527 132.862 437.343 134.389 435.661C135.939 433.976 139.21 434.449 141.609 436.725C144.029 438.965 144.761 442.171 143.137 443.835ZM163.903 452.822C163.223 455.003 160.097 455.987 156.939 455.061C153.787 454.108 151.725 451.562 152.361 449.359C153.018 447.161 156.165 446.133 159.343 447.124C162.491 448.074 164.559 450.607 163.903 452.823V452.822ZM186.709 454.488C186.787 456.783 184.111 458.685 180.798 458.726C177.466 458.804 174.768 456.943 174.73 454.685C174.73 452.369 177.351 450.489 180.678 450.428C183.991 450.363 186.709 452.212 186.709 454.488ZM207.929 450.884C208.326 453.117 206.023 455.417 202.734 456.029C199.499 456.623 196.503 455.236 196.093 453.022C195.691 450.727 198.031 448.429 201.266 447.835C204.561 447.264 207.509 448.609 207.929 450.884Z" fill="white"/>
</svg>
